<?xml version="1.0" encoding="utf-8"?>
<!-- Generator: Adobe Illustrator 26.4.1, SVG Export Plug-In . SVG Version: 6.00 Build 0)  -->
<svg version="1.1" id="Layer_1" xmlns="http://www.w3.org/2000/svg" xmlns:xlink="http://www.w3.org/1999/xlink" x="0px" y="0px"
	 viewBox="0 0 24 24" style="enable-background:new 0 0 24 24;" xml:space="preserve">
<style type="text/css">
	.st0{fill:none;stroke:#0D86FF;stroke-miterlimit:10;}
</style>
<path class="st0" d="M18.3,5.7c-1.6-1.6-4.1-1.6-5.7,0c0,0,0,0,0,0c-1.1,1.1-2.5,5.7-3.1,8C9.5,14,9.7,14.3,10,14.4
	c0.1,0,0.2,0,0.3,0c2.3-0.6,6.9-2,8-3.1C19.9,9.8,19.9,7.2,18.3,5.7C18.3,5.7,18.3,5.7,18.3,5.7z"/>
<circle class="st0" cx="15.5" cy="8.5" r="1"/>
<line class="st0" x1="14.8" y1="9.2" x2="9.8" y2="14.2"/>
<polygon class="st0" points="19.5,0.5 23.5,4.5 21,6 18,3 "/>
<line class="st0" x1="17.5" y1="5" x2="18.5" y2="3.5"/>
<line class="st0" x1="20.5" y1="5.5" x2="19" y2="6.5"/>
<path class="st0" d="M8,15.5H4.5c-1.1,0-2,0.9-2,2s0.9,2,2,2h12c1.1,0,2,0.9,2,2s-0.9,2-2,2h-16"/>
</svg>
