<?xml version="1.0" encoding="UTF-8"?>
<svg id="Layer_1" data-name="Layer 1" xmlns="http://www.w3.org/2000/svg" viewBox="0 0 206 36">
  <defs>
    <style>
      .cls-1 {
        fill: #fff;
      }

      .cls-2, .cls-3 {
        fill: #8697a8;
      }

      .cls-3 {
        isolation: isolate;
        opacity: .5;
      }
    </style>
  </defs>
  <circle class="cls-3" cx="23.22" cy="18" r="18"/>
  <g>
    <path class="cls-2" d="M54.21,14.21v3.04h6.72v2.79h-6.72v5.45h-3.1V11.42h10.72v2.8h-7.62Z"/>
    <path class="cls-2" d="M64.12,25.49V10.81h3.06v14.68h-3.06Z"/>
    <path class="cls-2" d="M76.79,25.49v-1.54c-.17,.23-.37,.45-.57,.66s-.44,.4-.69,.56c-.25,.16-.54,.29-.84,.38-.31,.09-.66,.14-1.05,.14-1.17,0-2.07-.36-2.71-1.07-.64-.71-.96-1.69-.96-2.94v-6.98h3.06v6c0,.72,.16,1.27,.48,1.64,.32,.37,.78,.55,1.37,.55s1.06-.18,1.4-.55c.34-.37,.51-.91,.51-1.64v-6h3.06v10.78h-3.06Z"/>
    <path class="cls-2" d="M89.22,25.49l-2.17-3.36-2.17,3.36h-3.2l3.78-5.47-3.64-5.31h3.28l2.01,3.14,2.03-3.14h3.2l-3.64,5.25,3.8,5.53h-3.28Z"/>
    <path class="cls-2" d="M100.69,25.49V11.42h10.6v2.76h-7.54v2.86h6.64v2.76h-6.64v2.96h7.64v2.75h-10.7Z"/>
    <path class="cls-2" d="M121.62,25.49v-1.54c-.38,.51-.83,.92-1.36,1.25-.53,.33-1.2,.49-2,.49-.63,0-1.24-.12-1.83-.36s-1.11-.6-1.57-1.08c-.46-.48-.82-1.06-1.1-1.75s-.41-1.48-.41-2.38v-.04c0-.9,.14-1.69,.41-2.38,.27-.69,.64-1.27,1.09-1.75,.45-.48,.97-.83,1.56-1.08,.59-.24,1.21-.36,1.85-.36,.82,0,1.49,.16,2.02,.48,.53,.32,.98,.69,1.34,1.12v-5.3h3.06v14.68h-3.06Zm.04-5.41c0-.45-.07-.85-.21-1.22s-.33-.69-.56-.95c-.23-.26-.51-.47-.82-.61-.32-.14-.65-.21-1.02-.21s-.7,.07-1.02,.21c-.32,.14-.59,.34-.83,.61-.24,.26-.43,.58-.57,.94-.14,.36-.21,.78-.21,1.23v.04c0,.45,.07,.85,.21,1.22,.14,.37,.33,.69,.57,.95,.24,.26,.52,.47,.83,.61,.31,.14,.65,.21,1.02,.21s.7-.07,1.02-.21c.31-.14,.59-.34,.82-.61,.23-.26,.42-.58,.56-.95s.21-.78,.21-1.22v-.04Z"/>
    <path class="cls-2" d="M134.15,25.49v-1.54c-.17,.23-.37,.45-.57,.66s-.44,.4-.69,.56c-.25,.16-.54,.29-.84,.38-.31,.09-.66,.14-1.05,.14-1.17,0-2.07-.36-2.71-1.07-.64-.71-.96-1.69-.96-2.94v-6.98h3.06v6c0,.72,.16,1.27,.48,1.64,.32,.37,.78,.55,1.37,.55s1.06-.18,1.4-.55c.34-.37,.51-.91,.51-1.64v-6h3.06v10.78h-3.06Z"/>
    <path class="cls-2" d="M147.64,25.18c-.67,.37-1.54,.55-2.62,.55-.8,0-1.55-.15-2.24-.44s-1.28-.69-1.78-1.2-.88-1.09-1.17-1.77c-.28-.68-.42-1.4-.42-2.16v-.04c0-.76,.14-1.49,.42-2.17,.28-.68,.67-1.28,1.17-1.79,.5-.51,1.09-.91,1.78-1.21,.69-.29,1.45-.44,2.28-.44,1.02,0,1.86,.16,2.53,.48,.67,.32,1.26,.76,1.77,1.33l-1.87,2.01c-.35-.36-.71-.65-1.08-.86-.37-.21-.83-.32-1.38-.32-.39,0-.74,.08-1.06,.23-.32,.15-.59,.37-.82,.63-.24,.27-.42,.58-.54,.94-.13,.36-.19,.73-.19,1.14v.04c0,.42,.06,.8,.19,1.17,.13,.36,.31,.68,.55,.95s.53,.48,.86,.63,.71,.23,1.13,.23c.51,0,.96-.1,1.34-.31,.38-.21,.76-.49,1.14-.83l1.79,1.81c-.52,.58-1.12,1.05-1.79,1.42Z"/>
    <path class="cls-2" d="M157.74,25.49v-1.17c-.38,.42-.83,.75-1.35,1-.52,.25-1.16,.37-1.91,.37-.51,0-.99-.07-1.44-.21s-.84-.35-1.18-.63-.6-.63-.79-1.04c-.19-.41-.29-.88-.29-1.42v-.04c0-.59,.11-1.1,.32-1.53,.21-.43,.51-.78,.89-1.07,.38-.28,.84-.49,1.37-.63,.53-.14,1.12-.21,1.76-.21,.55,0,1.03,.04,1.44,.12,.41,.08,.81,.19,1.2,.32v-.18c0-.64-.19-1.13-.58-1.47s-.96-.5-1.73-.5c-.59,0-1.11,.05-1.56,.15s-.92,.24-1.42,.43l-.76-2.33c.59-.25,1.21-.46,1.85-.62,.64-.16,1.42-.24,2.33-.24,1.68,0,2.9,.41,3.66,1.23,.76,.82,1.15,1.96,1.15,3.42v6.25h-2.96Zm.06-4.34c-.27-.12-.57-.22-.89-.29-.33-.07-.68-.11-1.06-.11-.66,0-1.17,.13-1.55,.38-.38,.25-.56,.62-.56,1.11v.04c0,.42,.15,.74,.46,.97,.31,.23,.71,.34,1.21,.34,.72,0,1.3-.17,1.74-.52s.65-.8,.65-1.37v-.54Z"/>
    <path class="cls-2" d="M168.32,25.5c-.39,.11-.84,.17-1.35,.17-.47,0-.9-.05-1.28-.15s-.71-.28-.99-.53c-.28-.25-.49-.59-.64-1s-.23-.93-.23-1.56v-5.11h-1.29v-2.61h1.29v-2.76h3.06v2.76h2.53v2.61h-2.53v4.61c0,.7,.33,1.05,.99,1.05,.54,0,1.04-.13,1.51-.38v2.45c-.32,.19-.68,.34-1.07,.45Z"/>
    <path class="cls-2" d="M171.73,13.53v-2.71h3.22v2.71h-3.22Zm.08,11.97V14.71h3.06v10.78h-3.06Z"/>
    <path class="cls-2" d="M188.45,22.31c-.29,.68-.7,1.27-1.23,1.78-.52,.51-1.14,.91-1.85,1.21s-1.49,.44-2.33,.44-1.6-.14-2.31-.43-1.32-.68-1.84-1.19c-.52-.5-.92-1.09-1.22-1.77-.29-.68-.44-1.4-.44-2.18v-.04c0-.78,.15-1.51,.44-2.18,.29-.68,.7-1.27,1.23-1.78,.52-.51,1.14-.91,1.85-1.21,.71-.29,1.49-.44,2.33-.44s1.6,.14,2.31,.43c.71,.29,1.32,.68,1.84,1.19,.52,.5,.92,1.09,1.22,1.77,.29,.68,.44,1.41,.44,2.18v.04c0,.78-.15,1.5-.44,2.18Zm-2.57-2.18c0-.4-.07-.78-.2-1.14-.13-.35-.33-.67-.58-.95-.25-.27-.56-.49-.91-.65-.35-.16-.73-.24-1.15-.24-.44,0-.83,.08-1.18,.23-.34,.15-.63,.37-.88,.63s-.43,.58-.55,.94c-.13,.36-.19,.73-.19,1.14v.04c0,.4,.07,.78,.2,1.14,.13,.36,.33,.67,.58,.95,.25,.28,.55,.49,.89,.65,.34,.16,.73,.24,1.16,.24s.83-.08,1.18-.23,.63-.37,.88-.63,.43-.58,.55-.94c.13-.35,.19-.73,.19-1.14v-.04Z"/>
    <path class="cls-2" d="M197.92,25.49v-6c0-.72-.16-1.27-.48-1.64-.32-.37-.78-.55-1.37-.55s-1.06,.18-1.4,.55-.51,.91-.51,1.64v6h-3.06V14.71h3.06v1.54c.17-.23,.36-.45,.57-.66,.21-.21,.44-.4,.69-.56s.54-.29,.84-.38c.31-.09,.66-.14,1.05-.14,1.17,0,2.07,.36,2.7,1.07,.64,.71,.96,1.69,.96,2.94v6.98h-3.06Z"/>
  </g>
  <g>
    <g>
      <path class="cls-1" d="M6.74,11.59v11.67h3.05v-4.31h3.69l.03-.1,.44-2.49h-4.17v-1.88h4.49l.02-.08,.5-2.83H6.74Z"/>
      <polygon class="cls-1" points="18.97 11.42 16.26 26.77 13.35 26.77 16.05 11.42 18.97 11.42"/>
      <g>
        <path class="cls-1" d="M28.33,14.59h-2.92v4.6c0,.97-.5,1.59-1.31,1.59s-1.24-.62-1.24-1.59v-4.6h-2.92v4.6c.01,2.4,1.67,4.16,4.17,4.16s4.24-1.77,4.24-4.16v-4.6Z"/>
        <g>
          <polygon class="cls-1" points="36.18 18.67 39.12 14.59 35.74 14.59 35.54 14.61 34.32 16.4 32.7 18.68 32.7 18.68 29.57 23.25 32.96 23.25 34.44 20.9 35.97 23.25 39.32 23.25 36.18 18.67"/>
          <polygon class="cls-1" points="33.13 14.59 29.77 14.59 31.46 16.94 33.13 14.59"/>
        </g>
      </g>
    </g>
    <g>
      <path class="cls-1" d="M20.46,25.69v.2h.45v.31h-.45v.2h.55v.35h-.92v-1.41h.92v.35h-.55Z"/>
      <path class="cls-1" d="M22.45,26.05c0,.44-.29,.71-.77,.71h-.46v-1.41h.46c.48,0,.77,.27,.77,.71Zm-.38,0c0-.22-.15-.36-.41-.36h-.09v.71h.09c.25,0,.4-.13,.4-.35Z"/>
      <path class="cls-1" d="M22.62,26.24v-.9h.38v.9c0,.12,.1,.2,.21,.2s.21-.08,.21-.2v-.9h.38v.9c0,.32-.26,.55-.59,.55s-.59-.23-.59-.55Z"/>
      <path class="cls-1" d="M23.96,26.05c0-.42,.34-.74,.78-.74,.18,0,.38,.08,.52,.21l-.22,.28c-.09-.08-.2-.13-.31-.13-.22,0-.4,.17-.4,.38s.19,.38,.39,.38c.12,0,.22-.06,.32-.14l.21,.29c-.14,.12-.31,.21-.53,.21-.4,0-.77-.29-.77-.74Z"/>
      <path class="cls-1" d="M25.32,26.75l.75-1.62h0l.74,1.62h-1.49Zm.96-.33l-.22-.44-.22,.44h.43Z"/>
      <path class="cls-1" d="M27.75,25.69h-.34v1.06h-.38v-1.06h-.34v-.35h1.05v.35Z"/>
      <path class="cls-1" d="M27.91,25.34h.38v1.41h-.38v-1.41Z"/>
      <path class="cls-1" d="M28.47,26.05c0-.42,.34-.75,.78-.75s.78,.32,.78,.75-.34,.74-.78,.74-.78-.32-.78-.74Zm1.17,0c0-.22-.17-.39-.4-.39s-.4,.17-.4,.39,.17,.39,.4,.39,.4-.17,.4-.39Z"/>
      <path class="cls-1" d="M31.43,25.34v1.43h-.12l-.73-.7v.69h-.38v-1.43h.12l.72,.7v-.69h.38Z"/>
      <path class="cls-1" d="M33.67,26.08c0,.43-.32,.71-.73,.71-.45,0-.79-.34-.79-.74s.34-.74,.78-.74c.18,0,.39,.08,.5,.19l-.21,.29c-.08-.07-.19-.12-.3-.12-.21,0-.4,.17-.4,.39,0,.2,.16,.39,.42,.39,.17,0,.29-.08,.3-.22h-.32v-.28h.73s.01,.09,.01,.14Z"/>
      <path class="cls-1" d="M34.61,26.75l-.38-.61v.61h-.38v-1.41s.54,0,.54,0c.31,0,.52,.21,.52,.46,0,.18-.11,.32-.24,.39l.38,.57h-.44Zm-.38-.79h.15c.08,0,.15-.05,.15-.14s-.07-.14-.15-.14h-.15v.28Z"/>
      <path class="cls-1" d="M35.13,26.05c0-.42,.34-.75,.78-.75s.78,.32,.78,.75-.34,.74-.78,.74-.78-.32-.78-.74Zm1.17,0c0-.22-.17-.39-.4-.39s-.4,.17-.4,.39,.17,.39,.4,.39,.4-.17,.4-.39Z"/>
      <path class="cls-1" d="M36.85,26.24v-.9h.38v.9c0,.12,.1,.2,.21,.2s.21-.08,.21-.2v-.9h.38v.9c0,.32-.26,.55-.59,.55s-.59-.23-.59-.55Z"/>
      <path class="cls-1" d="M38.26,25.34h.53c.29,0,.53,.22,.53,.5s-.24,.5-.53,.5h-.16v.42h-.38v-1.41Zm.71,.5c0-.09-.07-.15-.17-.15h-.16v.3h.16c.1,0,.17-.07,.17-.15Z"/>
    </g>
  </g>
</svg>