<?xml version="1.0" encoding="UTF-8"?>
<svg id="Layer_1" data-name="Layer 1" xmlns="http://www.w3.org/2000/svg" viewBox="0 0 206 36">
  <defs>
    <style>
      .cls-1 {
        fill: #fff;
      }

      .cls-2, .cls-3 {
        fill: #8697a8;
      }

      .cls-3 {
        isolation: isolate;
        opacity: .5;
      }
    </style>
  </defs>
  <circle class="cls-3" cx="23.22" cy="18" r="18"/>
  <g id="fulcrum">
    <g>
      <path class="cls-2" d="M59.38,13.03v3.84h8.49v3.53h-8.49v6.89h-3.91V9.5h13.54v3.53h-9.63Z"/>
      <path class="cls-2" d="M80.25,27.29v-1.95c-.22,.29-.46,.57-.72,.83-.26,.26-.56,.5-.88,.7s-.68,.37-1.07,.49c-.39,.12-.83,.18-1.32,.18-1.47,0-2.61-.45-3.42-1.35-.8-.9-1.21-2.13-1.21-3.71V13.67h3.86v7.58c0,.91,.2,1.6,.61,2.07,.41,.46,.98,.7,1.73,.7s1.33-.23,1.77-.7c.43-.46,.65-1.15,.65-2.07v-7.58h3.86v13.62h-3.86Z"/>
      <path class="cls-2" d="M87.74,27.29V8.74h3.86V27.29h-3.86Z"/>
      <path class="cls-2" d="M104.97,26.89c-.85,.47-1.95,.7-3.3,.7-1.02,0-1.96-.19-2.83-.56-.87-.37-1.62-.88-2.25-1.51-.63-.63-1.12-1.38-1.47-2.24-.36-.85-.53-1.77-.53-2.73v-.05c0-.97,.18-1.88,.53-2.74,.36-.86,.85-1.62,1.47-2.26,.63-.64,1.38-1.15,2.25-1.52s1.83-.56,2.88-.56c1.29,0,2.35,.2,3.2,.61,.85,.41,1.59,.97,2.24,1.68l-2.36,2.54c-.44-.46-.89-.82-1.36-1.09-.47-.27-1.05-.41-1.74-.41-.49,0-.94,.1-1.33,.29-.4,.19-.75,.46-1.04,.8-.3,.34-.53,.73-.69,1.18-.16,.45-.24,.93-.24,1.44v.05c0,.53,.08,1.02,.24,1.47,.16,.46,.39,.86,.7,1.19,.31,.34,.67,.61,1.09,.8,.42,.2,.9,.29,1.42,.29,.64,0,1.21-.13,1.69-.39,.48-.26,.96-.61,1.44-1.05l2.26,2.29c-.66,.73-1.41,1.33-2.26,1.79Z"/>
      <path class="cls-2" d="M117.76,17.45c-1.29,0-2.3,.39-3.04,1.17-.74,.78-1.11,1.99-1.11,3.63v5.03h-3.86V13.67h3.86v2.74c.39-.93,.92-1.68,1.6-2.24s1.59-.81,2.75-.76v4.04h-.2Z"/>
      <path class="cls-2" d="M128.89,27.29v-1.95c-.22,.29-.46,.57-.72,.83s-.55,.5-.88,.7c-.32,.21-.68,.37-1.07,.49-.39,.12-.83,.18-1.32,.18-1.47,0-2.61-.45-3.42-1.35-.8-.9-1.21-2.13-1.21-3.71V13.67h3.86v7.58c0,.91,.2,1.6,.61,2.07,.41,.46,.98,.7,1.73,.7s1.33-.23,1.77-.7c.43-.46,.65-1.15,.65-2.07v-7.58h3.86v13.62h-3.86Z"/>
      <path class="cls-2" d="M153.13,27.29v-7.58c0-.91-.19-1.6-.58-2.07-.39-.46-.95-.7-1.68-.7s-1.3,.23-1.71,.7c-.42,.46-.62,1.15-.62,2.07v7.58h-3.86v-7.58c0-.91-.2-1.6-.58-2.07-.39-.46-.95-.7-1.68-.7s-1.3,.23-1.72,.7c-.42,.46-.62,1.15-.62,2.07v7.58h-3.86V13.67h3.86v1.95c.22-.29,.46-.57,.72-.83,.26-.26,.55-.5,.88-.7,.32-.2,.68-.37,1.08-.49,.4-.12,.84-.18,1.33-.18,.9,0,1.67,.19,2.33,.56s1.16,.91,1.51,1.61c.59-.72,1.25-1.26,1.98-1.62,.73-.37,1.56-.55,2.49-.55,1.44,0,2.57,.42,3.38,1.27,.81,.85,1.22,2.09,1.22,3.74v8.87h-3.86Z"/>
    </g>
    <polygon class="cls-1" points="38.88 27.29 23.22 .62 7.56 27.29 37.82 27.29 38.88 27.29"/>
    <path class="cls-3" d="M23.22,11.19c-3.33,0-6.03,2.7-6.03,6.03h0v10.06h4.02v-4.02h4.02v-4.02h-4.02v-2.01h0c0-1.11,.9-2.01,2.01-2.01s2.01,.9,2.01,2.01h0s4.02,0,4.02,0h0c0-3.33-2.7-6.03-6.03-6.03Z"/>
  </g>
</svg>