<?xml version="1.0" encoding="UTF-8"?>
<svg id="Layer_1" data-name="Layer 1" xmlns="http://www.w3.org/2000/svg" xmlns:xlink="http://www.w3.org/1999/xlink" viewBox="0 0 999 999">
  <defs>
    <style>
      .cls-1 {
        fill: url(#linear-gradient-2);
      }

      .cls-2 {
        fill: #7f345c;
      }

      .cls-3 {
        fill: #987785;
      }

      .cls-4 {
        fill: url(#linear-gradient-6);
      }

      .cls-5 {
        fill: none;
        opacity: .14;
        stroke: #000;
        stroke-miterlimit: 10;
        stroke-width: .25px;
      }

      .cls-6 {
        fill: #e2b8ab;
      }

      .cls-7 {
        fill: #0d132c;
      }

      .cls-8 {
        fill: url(#linear-gradient-5);
      }

      .cls-9 {
        fill: url(#linear-gradient-7);
      }

      .cls-10 {
        fill: #ad4d7b;
      }

      .cls-11 {
        fill: #e1b2a4;
      }

      .cls-12 {
        fill: url(#linear-gradient-3);
      }

      .cls-13 {
        fill: url(#linear-gradient);
      }

      .cls-14 {
        fill: url(#linear-gradient-4);
      }

      .cls-15 {
        fill: url(#linear-gradient-8);
      }
    </style>
    <linearGradient id="linear-gradient" x1="509.12" y1="704.62" x2="486.66" y2="237.04" gradientUnits="userSpaceOnUse">
      <stop offset="0" stop-color="#7a4b4b"/>
      <stop offset=".04" stop-color="#825352"/>
      <stop offset=".24" stop-color="#aa7b74"/>
      <stop offset=".4" stop-color="#c2938a"/>
      <stop offset=".49" stop-color="#cc9d92"/>
      <stop offset=".58" stop-color="#d3a498"/>
      <stop offset=".77" stop-color="#ddaea1"/>
      <stop offset="1" stop-color="#e1b2a4"/>
    </linearGradient>
    <linearGradient id="linear-gradient-2" x1="467.75" y1="371.58" x2="477.6" y2="360.75" gradientUnits="userSpaceOnUse">
      <stop offset="0" stop-color="#7a4b4b" stop-opacity=".5"/>
      <stop offset=".12" stop-color="#52353e" stop-opacity=".5"/>
      <stop offset=".27" stop-color="#2e2133" stop-opacity=".5"/>
      <stop offset=".43" stop-color="#18142c" stop-opacity=".5"/>
      <stop offset=".61" stop-color="#11112a" stop-opacity=".5"/>
    </linearGradient>
    <linearGradient id="linear-gradient-3" x1="497.68" y1="367.93" x2="497.12" y2="341.71" gradientUnits="userSpaceOnUse">
      <stop offset="0" stop-color="#5a4355" stop-opacity=".5"/>
      <stop offset=".3" stop-color="#31273d" stop-opacity=".5"/>
      <stop offset=".61" stop-color="#11112a" stop-opacity=".5"/>
    </linearGradient>
    <linearGradient id="linear-gradient-4" x1="206.92" y1="883.42" x2="270.12" y2="921.26" xlink:href="#linear-gradient-3"/>
    <linearGradient id="linear-gradient-5" x1="299.63" y1="774.72" x2="377.89" y2="753.9" gradientUnits="userSpaceOnUse">
      <stop offset="0" stop-color="#ad4d7b" stop-opacity="0"/>
      <stop offset=".31" stop-color="#a54273" stop-opacity=".28"/>
      <stop offset=".99" stop-color="#932861" stop-opacity=".99"/>
      <stop offset="1" stop-color="#932861"/>
    </linearGradient>
    <linearGradient id="linear-gradient-6" x1="488.64" y1="550.9" x2="501.55" y2="565.43" gradientUnits="userSpaceOnUse">
      <stop offset="0" stop-color="#000" stop-opacity="0"/>
      <stop offset=".14" stop-color="#040103" stop-opacity=".03"/>
      <stop offset=".3" stop-color="#12040b" stop-opacity=".11"/>
      <stop offset=".46" stop-color="#28091a" stop-opacity=".24"/>
      <stop offset=".63" stop-color="#48102f" stop-opacity=".43"/>
      <stop offset=".81" stop-color="#701949" stop-opacity=".67"/>
      <stop offset=".98" stop-color="#a12469" stop-opacity=".97"/>
      <stop offset="1" stop-color="#a7266d"/>
    </linearGradient>
    <linearGradient id="linear-gradient-7" x1="746.91" y1="519.51" x2="767.02" y2="542.13" xlink:href="#linear-gradient-6"/>
    <linearGradient id="linear-gradient-8" x1="884.79" y1="722.96" x2="1354.93" y2="1017.58" xlink:href="#linear-gradient-6"/>
  </defs>
  <rect class="cls-2" width="999" height="999"/>
  <g>
    <g id="Face">
      <path class="cls-7" d="M703.81,461.98s8.84-3.54,8.84-8.84,0-12.38,5.3-14.14c0,0,3.54-1.77,7.07-8.84,0,0,5.3-3.54,12.38-12.38,0,0,3.54-7.07,10.61-15.91,0,0,1.77,5.3,0,7.07,0,0,1.77,0,3.54-7.07,0,0,0-1.77,1.77-3.54,0,0,1.77-1.77,1.77-5.3,0,0,0-1.77,1.77-3.54,0,0,0-1.77,1.77-5.3,1.77-3.54,0-5.3,0-8.84,0,0,0-3.54-3.54-7.07,0,0,1.77-1.77,7.07,1.77,0,0,1.77,3.54,1.77,8.84,0,0,1.77-5.3,0-8.84,0,0-3.54-3.54-5.3-3.54,0,0-1.77-1.77,0-1.77s7.07,3.54,7.07,5.3c0,0,1.77,1.77,1.77,3.54,0,0,1.77-3.54-3.54-7.07-5.3-3.54,0-1.77,0-1.77,0,0,1.77,3.54,3.54,3.54s1.77-1.77,3.54,0c0,0,0-1.77-1.77-1.77s-7.07-5.3-7.07-5.3c0,0,1.77,0,5.3,3.54,0,0,3.54,1.77,5.3,3.54,0,0,0-1.77-8.84-7.07,0,0,7.07,3.54,12.38,5.3,0,0-5.3-5.3-8.84-5.3,0,0,1.77-1.77,10.61,3.54,0,0,0-1.77-5.3-3.54,0,0-6.87-1.72-8.76-3.46-.03-.03-.05-.05-.08-.08-1.77-1.77-3.54-1.77-3.54-1.77,0,0-1.77-1.77,1.77-1.77,0,0,5.3,5.3,7.07,5.3,0,0,5.3,0,7.07-1.77,0,0-3.54,0-5.3-1.77,0,0-3.54,0-5.3-1.77,0,0,5.3,1.77,8.84,0l1.77-1.77s-1.77,0-3.54-1.77c0,0-1.77,1.77-5.3-1.77,0,0,1.77-1.77,7.07-1.77,0,0,5.3-1.77,7.07-5.3,0,0,1.77-1.77,3.54-3.54,0,0-1.77,1.77-3.54,0,0,0,3.54,0,3.54-7.07,0,0,0-1.77-1.77,0-1.77,1.77-1.77,0-1.77,0h-1.77l3.54-1.77h-3.54l3.54-3.54-3.54,1.77,5.3-7.07-5.3,3.54,3.54-5.3-5.3,3.54,5.3-7.07-5.3,3.54,5.3-7.07-5.3,3.54,7.07-7.07s3.54-5.3,3.54-7.07-1.77-5.3-3.54-5.3-1.77-1.77-1.77-1.77l-1.77,1.77v-3.54l-1.77,1.77v-3.54l-3.54,1.77s3.54-3.54,3.54-7.07c0,0,0,1.77,1.77,0,0,0,1.77-3.54,0-5.3s-1.77-3.54-1.77-3.54c0,0,3.54-3.54,3.54-7.07v-3.54c0-1.77,1.77-3.54,0-5.3-1.77-1.77-3.54-3.54-3.54-7.07s1.77-3.54,1.77-3.54c0,0,0-1.77-3.54-1.77s1.77-5.3,1.77-5.3c0,0,0-7.07-1.77-7.07s0,1.77,0,3.54,0,3.54-3.54,0-3.54-7.07-3.54-7.07l-3.54-5.3s1.77-1.77,0-3.54,0-5.3,0-5.3c0,0-1.77-3.54-3.54-1.77-1.77,1.77-5.3-1.77-5.3-3.54s-1.77-1.77,1.77-5.3c3.54-3.54,1.77,0,1.77,0,0,0,3.54-1.77,1.77-3.54-1.77-1.77-3.54,1.77-3.54,1.77,0,0,0-3.54,1.77-3.54s5.3-5.3,5.3-5.3l5.3-5.3s-1.77,0-3.54,1.77l-5.3,5.3s1.77-3.54,3.54-5.3,0-5.3,0-5.3c0,0,3.54-5.3,3.54-7.07s-5.3,5.3-5.3,5.3c0,0,1.77-5.3,0-5.3s-1.77-5.3-1.77-5.3c0,0,0-5.3-1.77-5.3s-5.3-3.54-5.3-3.54c0,0-3.54,0-5.3-1.77-1.77-1.77-3.54-3.54-3.54-3.54,0,0-1.77-1.77-3.54-1.77s-5.3-1.77-5.3-1.77c0,0-3.54-1.77-3.54-3.54s-7.07-3.54-7.07-3.54h-7.07c-1.77,0-5.3-1.77-5.3-1.77h-5.3s0-3.54,1.77-3.54,1.77-5.3,1.77-5.3c0,0-5.3,3.54-7.07,3.54s-5.3,1.77-5.3,3.54-3.54-1.77-3.54-5.3-7.07-5.3-8.84-5.3-7.07,1.77-10.61,3.54c-3.54,1.77-8.84,0-8.84-1.77s0-3.54-3.54-5.3-1.77-1.77-3.54-3.54-5.3-1.77-3.54-3.54c1.77-1.77,3.54,0,3.54,0,0,0,0-3.54-1.77-3.54s-1.77-3.54-1.77-3.54c0,0,0-3.54-1.77-3.54s-3.54-5.3-7.07-3.54-10.61,0-10.61,0c0,0-7.07-3.54-3.54-5.3s5.3,0,5.3,0c0,0,1.77-1.77,3.54-1.77s3.54-1.77,0-1.77h-8.84c-3.54,0-7.07-3.54-7.07-3.54,0,0,5.3-1.77,7.07-1.77s1.77-1.77,1.77-1.77h-5.3l8.84-1.77h-5.3l5.3-1.77h-5.3l3.54-3.54-7.07,1.77,1.77-1.77-10.61,1.77s-7.07,1.77-8.84,3.54c-1.77,1.77-8.84,3.54-8.84,3.54l8.84-8.84-10.61,5.3,8.84-7.07-12.38,5.3,10.61-8.84-14.14,7.07,8.84-8.84-12.38,7.07,5.3-8.84-10.61,7.07,3.54-8.84-10.61,8.84,10.61-14.14s-14.14,8.84-14.14,10.61-10.61,10.61-12.38,5.3c-1.77-5.3-10.61-3.54-10.61-3.54l-3.54,7.07s-5.3-3.54-5.3-7.07-1.77-7.07-1.77-7.07c0,0,0,7.07-1.77,8.84s-7.07-1.77-7.07-1.77c0,0-1.77-3.54,1.77-8.84,0,0-5.3,3.54-5.3,7.07s-5.3,7.07-5.3,7.07c0,0-1.77,3.54-1.77,7.07,0,0-3.54,3.54-5.3,7.07-1.77,3.54-7.07,0-7.07,0,0,0-7.07,1.77-7.07-1.77s-5.3,5.3-5.3,5.3c0,0-3.54,3.54-3.54,5.3s-3.54,5.3-5.3,5.3-1.77,5.3-1.77,5.3l-3.54-1.77,1.77,5.3-5.3,1.77s-5.3,3.54-14.14,5.3c-8.84,1.77-12.38,12.38-12.38,12.38,0,0-5.3,7.07-10.61,7.07s-1.77,7.07-1.77,7.07c0,0-3.54,1.77-8.84,0s-10.61,7.07-10.61,7.07c0,0,5.3-5.3,10.61-3.54,5.3,1.77,3.54,1.77,0,5.3s-1.77,5.3-7.07,5.3-5.3,7.07-5.3,10.61,5.3,1.77,7.07,8.84c1.77,7.07-8.84-1.77-8.84-1.77l5.3,8.84-8.84-7.07v8.84l-3.54-7.07s-1.77-3.54-3.54-3.54-1.77,1.77-1.77,3.54-3.54,0-3.54,0c0,0-5.3,1.77-5.3,5.3s-1.77,8.84-1.77,12.38,0,10.61,5.3,15.91c5.3,5.3,17.68,12.38,26.52,14.14,0,0-24.75-3.54-30.05-12.38,0,0,1.77,12.38,22.98,14.14,0,0-17.68,1.77-24.75-7.07,0,0,0,5.3,8.84,8.84,0,0-8.84,0-12.38-7.07,0,0,0,5.3,5.3,8.84,0,0-3.54,0-7.07-1.77,0,0,5.3,8.84,10.61,10.61,0,0-3.54,0-7.07-3.54,0,0,3.54,5.3,5.3,7.07,0,0-7.07-3.54-7.07-5.3h0s0,0,0,0c0,0-1.77,1.77,0,3.54,1.77,1.77,5.3,8.84,14.14,12.38,0,0,0,3.54,5.3,8.84s7.19,11.04,7.19,11.04c0,0,12.25-7.51,29.93-9.27,17.68-1.77,63.64,76.02,63.64,76.02l70.72,83.09,99,35.36,5.3,1.77s3.54-1.77,7.07-5.3c0,0,0-3.54,1.77-5.3,1.77-1.77,5.3-7.07,5.3-7.07"/>
      <path class="cls-11" d="M504.92,503.53s-1.77,19.45,1.77,53.04c0,0-14.14,7.07-17.68,12.38,0,0-3.54,1.77,0,5.3,0,0,7.96,6.19,22.1,23.87,0,0,7.07,5.3,15.91,15.91,0,0,1.77,5.3,8.84,10.61,0,0,3.54,3.54,8.84,5.3,0,0,5.3,3.54,8.84,7.07,0,0,8.84,5.3,10.61,8.84,0,0,12.38,10.61,22.98,12.38,0,0,8.84,1.77,19.45,7.07,0,0,8.84,5.3,12.38,5.3,0,0,8.84,3.54,14.14,5.3,0,0,7.07,0,15.91,3.54,0,0,12.38,5.3,19.45-5.3,0,0,5.3-7.07,17.68-15.91,0,0,17.68-12.38,28.29-15.91,0,0,8.84-5.3,15.91-10.61,0,0,14.14-12.38,30.05-15.91,0,0,10.51-3.5,8.86-20.97,0-.08-.02-.16-.02-.24,0,0,1.77-15.91,0-33.59v-28.29s-3.54-1.77-17.68-1.77c0,0-19.45,0-33.59-3.54,0,0-7.07,0-17.68-5.3-10.61-5.3-8.84-17.68-8.84-17.68l-1.77-24.75s0-14.14,1.77-21.21c0,0,0-21.21,1.77-24.75,0,0,1.77-3.54,1.77-10.61s10.61-19.45,10.61-19.45c0,0,10.61-3.54,15.91-12.38,0,0,5.3-3.54,8.84-8.84,0,0,1.77-3.54,5.3-7.07,0,0,8.84-10.61,8.84-14.14,0-1.77,5.3-5.3,0-26.52,0,0-5.3-12.38-14.14-15.91,0,0-7.07-3.54-19.45,1.77,0,0-8.84,3.54-12.38,3.54,0,0-3.54,0-1.77,1.77,0,0,0,1.77,1.77,3.54,0,0,0,1.77-5.3-3.54-5.3-5.3-3.54-1.77-3.54-1.77,0,0,1.77,5.3,7.07,7.07,0,0-5.3,1.77-10.61-5.3,0,0-1.77,0,0,1.77l3.54,3.54s-1.77,0-3.54-1.77c0,0,0,1.77,1.77,3.54,0,0-1.77,0-3.54-1.77,0,0,1.77,3.54,3.54,3.54,0,0-3.54,1.77-7.07-5.3,0,0,1.77,7.07,10.61,8.84,0,0-1.77,1.77-5.3,0,0,0-5.3-1.77-7.07-5.3,0,0-1.77-1.77-3.54-5.3,0,0-1.77-3.54-1.77,0,0,0,0,5.3,5.3,12.38,0,0,5.3,5.3,8.84,5.3,0,0,5.3,1.77-3.54,0-8.84-1.77-10.61-7.07-10.61-7.07,0,0,1.77,12.38,0,17.68l-1.77-8.84-1.77,8.84-1.77-10.61-3.54,10.61v-14.14l-1.77,8.84v-8.84l-1.77,7.07v-8.84l-3.54,7.07,1.77-8.84-5.3,7.07,1.77-7.07-3.54,5.3s1.77-3.54,0-5.3c0,0,5.3-3.54,5.3-12.38,0,0,0-12.38-8.84-17.68,0,0-5.3-3.54,1.77-8.84,7.07-5.3,5.3-15.91,1.77-21.21-3.54-5.3-14.14-26.52-14.14-26.52,0,0,1.77,1.77,5.3,3.54l-1.77-3.54,3.54,1.77-5.3-7.07,7.07,3.54-8.84-8.84,8.84,5.3-8.84-7.07,8.84,3.54-7.07-5.3,8.84,3.54-5.3-7.07s5.3,5.3,5.3,3.54-5.3-5.3-5.3-5.3l5.3,1.77-3.54-3.54h3.54l-3.54-3.54,3.54,1.77-3.54-5.3,3.54-1.77-3.54-3.54s-1.77-5.3-21.21-8.84c0,0-12.38-3.54-31.82-5.3,0,0-10.61-3.54-21.21-3.54,0,0-1.77,0-15.91-1.77,0,0-7.07,0-15.91,1.77,0,0-10.61,3.54-17.68,7.07,0,0-7.07,1.77-8.84,5.3,0,0-5.3,0-10.61,1.77,0,0-5.3,1.77-12.38,7.07,0,0-3.54,1.77-14.14,14.14,0,0-7.07,8.84-10.61,15.91,0,0-3.54,5.3-7.07,14.14,0,0-5.3,8.84-7.07,17.68,0,0-1.77,3.54-5.3,8.84-.62,.93-1.77,3.54-5.3,7.07,0,0-1.77,1.77-1.77,5.3,0,.51,1.68,4.8,1.77,5.3,.28,1.59-1.77,3.54,0,8.84,0,0,0,1.77,1.77,8.84v12.38s0,5.3-1.77,8.84c0,0-1.77,1.77-1.77,3.54v5.3h0s-3.54,5.3-5.3,12.38c0,0-1.77,10.61,0,21.21,0,0,3.54,15.91,7.07,28.29,0,0,3.54,10.61,7.07,19.45,0,0,5.3,15.91,10.61,26.52,5.3,10.61,7.07,15.91,7.07,15.91,0,0,5.3,14.14,17.68,17.68,0,0,8.84,3.54,15.91,3.54s6.19,.88,6.19,.88Z"/>
      <path class="cls-11" d="M446.73,290.68s-1.61,2.41-2.31,3.71c0,0-1.08,1.82-2.01,2.75,0,0-.54,.56-1.35,1.51,0,0-1.29,1.13-1.56,2.06,0,0-1.17,2.87-.87,3.92s.73,2.94,1.77,5.3c0,0,.02,1.03-.47,2.6,0,0-.5,2.16-.13,3.84,0,0,.25,1.55,.6,2.41,0,0,.61,4.82,1.77,8.84v12.68s0,4.87-1.77,8.53c0,0-1.76,1.75-1.76,3.4,0,0,6.45-2.02,10.36-3.84,0,0,4.81-2.14,5.74-2.71,0,0,2.37-1.25,4.29-3.61,0,0,3.4-4.08,3.99-5.41,0,0,3.18-5.36,3.42-6.74,0,0,1.79-4.75,2.18-6.03,0,0,1.61-5.21,1.89-7.55,0,0,1.41-8.3,1.45-10.46,0,0,.33-3.79,.4-4.35,0,0,.03-2.97-.71-5.19,0,0-.8-2.36-1.55-3.26,0,0-1.06-1.44-3.92-2.09,0,0-4.82-.93-8.58-.9,0,0-3.77,0-5.28,.17,0,0-4.44,.06-5.6,.43Z"/>
      <path id="glass" class="cls-7" d="M694.97,309.94c-15.91-12.38-35.36-24.75-35.36-24.75l-56.57-33.59c-8.84-1.77-28.29,0-28.29,0-21.21,1.77-35.36,7.07-35.36,7.07-8.84,1.77-28.29,12.38-28.29,12.38-10.61,7.07-22.98,8.84-22.98,8.84,0,0-14.14,3.54-17.68,3.54s-5.3-1.77-19.45,0c-14.14,1.77-21.21,5.3-21.21,5.3-12.38,5.3-30.05,15.91-30.05,15.91-1.77,10.61,0,19.45,0,19.45,1.77,0,3.54,3.54,3.54,3.54,1.77,12.38,3.54,15.91,3.54,15.91,1.77,14.14,12.38,14.14,12.38,14.14,5.3,1.77,17.68,0,17.68,0,1.77,0,8.84-1.77,8.84-1.77,5.3-1.77,12.38-5.3,12.38-5.3,3.54-3.54,7.07-5.3,7.07-5.3,3.54-12.38,7.07-15.91,7.07-15.91,2.93-5.87,9.52-15.38,11.68-18.46,.41-.58,.52-1.32,.28-1.98-1.35-3.72-1.35-9.62-1.35-9.62,1.77-7.07,8.84-7.07,8.84-7.07,3.54,1.77,5.3,7.07,5.3,7.07,1.77,7.07,5.3,17.68,5.3,17.68,7.07,14.14,19.45,15.91,19.45,15.91,7.07,1.77,17.68,1.77,26.52,0,.1-.02,.19-.04,.29-.06,8.82-1.82,20.93-7.01,20.93-7.01,5.3-1.77,14.14-8.84,14.14-8.84,1.77-1.77,5.3-8.84,5.3-8.84,5.3-7.07,5.3-19.45,5.3-19.45,0-8.84,1.77-10.61,1.77-10.61,1.77-3.54,5.3-3.54,5.3-3.54,4.12,0,6.1,2.13,6.79,3.08,.23,.32,.55,.54,.92,.67,5.83,2.07,20.58,8.62,20.58,8.62,12.38,5.3,37.13,17.68,37.13,17.68,8.84,3.54,14.14,1.77,14.14,1.77,1.77,0,22.98,14.14,22.98,14.14,3.54,3.54,3.54,0,3.54,0l-12.38-10.61Zm-286.59,14.62s0-4.74,.91-9.89c-.08,.58-.79,5.54-.91,9.93,0-.02,0-.03,0-.05Zm63.95-22.62s-.62,7.8-1.49,12.41c0,0-1.18,9.34-6.08,19.25,0,0-4.32,8.65-9.74,11.93,0,0-9.68,4.9-13.43,5.53,0,0-8.24,2.48-15.51,2.65,0,0-7.26,.58-10.32-2.71,0,0-3.98-2.54-5.71-10.95,0,0-1.33-4.96-1.62-12.28,0,0,2.27-.03,3.79,1.21,0,0,22.56,11.88,28.94,16.1,0,0,1.58,.23,2-9.76,0,0-15.3-12.8-31.17-24.14,0,0-1.42-1.92-2.39,1.96,.13-.6,.24-1.21,.4-1.8,0,0,2.08-3.98,5.88-7.49,0,0,4.15-3.4,9.22-6.34,0,0,8.01-3.69,14.12-5.19,0,0,7.21-2.19,13.03-2.08,0,0,3.98-.58,10.78,.23,0,0,5.55,.23,7.3,2.88,0,0,2.34,3.5,2,8.57Zm113.66-10.76s.12,8.19-4.9,17.29c0,0-5.48,8.36-14.07,11.65,0,0-9.97,4.55-20.06,6.46,0,0-12.28,2.48-18.04,2.19,0,0-10.15,.81-14.59-4.9,0,0-.55-1.02-1.31-2.58,.83,.15,1.69-.58,2.29-3.3,1.61-7.26-.52-11.59-.52-11.59-1.04-2.71-5.59-7.78-5.59-7.78-.52-.21-1.73-1.42-2.89-2.69,0-.73,.02-1.46,.07-2.21,0,0,.78-5.9,3.84-9.42,0,0,4.96-6.96,13.8-11.41,0,0,10.99-5.69,18.22-7.38,0,0,9.61-3.23,15.22-3.23,0,0,6.86-.83,12.45,0,0,0,4.55,.13,8.3,1.58,0,0,4.78,2.36,6.51,9.25,0,0,1.61,6.83,1.27,18.07Z"/>
      <path class="cls-5" d="M504.92,503.53s11.96,.11,20.4-.7c.73-.07,1.43-.2,2.14-.39,4.67-1.21,22.85-6.32,37.54-16.32,1.2-.82,2.5-1.47,3.9-1.9,5.07-1.53,18.04-5.23,26.49-5.61,1.08-.05,2.14-.17,3.18-.44,3.6-.95,11.46-3.79,14.16-10.81,0,0,7.23-13.22,0-23.37"/>
      <g id="Nose">
        <path class="cls-13" d="M488.05,307.1s-6.34,6.9-8.34,9.95c-2,3.05-5.4,8.58-7.49,12.34,0,0-4.07,4.69-7.07,15.91,0,0-2.69,5.92-3,8.72,0,0-1.11,3.38-2.38,4.88,0,0-1,3.54,0,7.03,0,0-.61,2.38,5.65,7.96,0,0,4.04,3.07,7.65,3.77,0,0,2.54-5.46,4.46-4.23,0,0,3.31-.54,3.61-1.77,0,0,2.27-.73,4.69,.85,0,0,3.77,.81,7.07-1.73,0,0,4-1.46,1.96-2.96,0,0-.15-1.35,4.04-.85,0,0,4.21,.54,6.4-.38,0,0,3.46,.12,6.51,1.15,0,0,5.53-.63,7.21-1.79,0,0,5.88-3.23,5.88-7.5,0,0,3.67-5.47-4.55-15.39,0,0-4.32-11.8-6.58-13.32,0,0-6.64-3.21-11.48-12.74,0,0-3.44-8.82-5.95-11.01,0,0-2.19-3.57-8.27,1.1Z"/>
        <path class="cls-1" d="M466.72,363.33s1.92,.12,4.04,2.31c0,0,3.84,2.39,8.15,4.15,0,0-1.81,2.11-4.38,2.54,0,0-5.27,.88-8.03-1.15,0,0-5.15-6.61,.23-7.84Z"/>
        <path class="cls-12" d="M484.44,362.79s1.27-3.73,5.8-5.84c0,0,3.69-3,8.65-2.65,0,0,3.88-.04,6.76,2.11,0,0,4.34,2,4.96,4.54,0,0,.73,2-2.84,2.84,0,0-5.8,.19-9.11,.73,0,0-4.37-.54-6.15-.23,0,0-3.35,.19-4.19,.65,0,0-3.42,2.34-3.88-2.15Z"/>
      </g>
    </g>
    <g id="body">
      <path class="cls-10" d="M383.97,963.45s-7.53,3.69-38.13-12.61c0,0-13.37-6-32.51-16.06,0,0-11.53-4.46-17.29-8.3,0,0-12.07-7.23-14.76-8.22,0,0-7.23-4.11-10.34-4.52,0,0-.23,7.26-1.73,15.28,0,0-.29,.35-13.61-8.07,0,0-13.14-10.09-16.66-12.8,0,0-4.21-2.88-6.63-5.36,0,0-3.63-2.88-7.32-5.25,0,0-3.98-2.48-6.98-4.55,0,0-4.44-3.46-9.11-5.94,0,0-4.27-2.08-6.28-5.19,0,0-9.74-5.97-7.47-9.71,0,0,3.89-3.78,5.68-8.79,0,0,.17-3.63,4.76-5.62,0,0,1.64-3.63,4.27-6.92,0,0,3.34,.55,2.51-3.2,0,0,.17-2.54,1.28-4.23,0,0,2.4-14.16,7.07-24.42,0,0,4.73-13.14,9.11-24.44,0,0,13.89-33.03,20.12-44.91,0,0,.87-.31,.73-1.46,0,0-.16-1.13,1.19-1.46,0,0-1.13-2.4,.01-2.88,0,0,1.16-.27,1.81-1.2,0,0,15.63-30,27.97-54.79,0,0,14.76-27.98,35.17-49.12,0,0-.38-4.5,3.65-6.19,0,0,18.14-9.03,29.29-15.49,0,0,11.3-5.3,23.44-8.61,0,0,4.11-.88,5.92-2.11,0,0,18.68-5.8,29.13-9.65,0,0,8.22-2.69,12.14-6.07,0,0,16.06-7.42,30.86-14.26,0,0,6.28-.17,11.76-4.21,0,0,4.61-.92,7.49-3.4,0,0,5.16-1.24,6.49-2.74,0,0,6.14-1.07,5.02-4.78,0,0,.2-3.2,3.55-7.32,0,0,2.94-5.02,10.9-4.84,0,0,4.41-.7,9.46-.44,0,0,.37,4.07,.52,5.57,0,0,.11,1.38,.25,2.41,0,0-15.13,7.68-17.68,12.38,0,0-4.63,2.4,1.76,6.81,0,0,8.21,7.16,20.04,21.99,0,0,12,10.58,16.21,16.29,4.21,5.71,.17,.44,.17,.44,0,0,4.13,9.59,17.51,15.47,0,0,5.69,4.04,8.84,7.07,0,0,6.76,3.54,10.61,8.84,0,0,10.42,9.12,20.35,11.77,0,0,9.38,1.46,20.57,6.93,0,0,9.43,5.4,13.89,6.04,0,0,8.41,3.16,14.14,5.3,0,0,8.24,.14,15.91,3.54,0,0,8.45,3.49,15.55-1.23,0,0,12.93-14.92,19.59-18.54,0,0,22.41-15.13,30.27-17.36,0,0,11.87-7.09,17.62-12.01,0,0,12.52-9.36,18.1-11.06,0,0,4.29-2.41,8.88-3.13,0,0,11.93-1.44,10.26-22.1,0,0,1.81-24.39-.06-33.03,0,0,.54-10.07,0-28.29,0,0-2.61-1.7-15.41-1.75,0,0-10.09-.07-13.96-.47,0,0,5.32-2.75,10.13-3.33,0,0,8.76-3.83,12.97-7.03,0,0,1.64-1.53,6.23,2.16,0,0,7.41,6.28,13,7.58,0,0,5.19-.12,6.6,.49,0,0,2.48,1.82,5.76,1.18,0,0,5.79,1.21,9.97,.89,0,0,3.57,.37,5.59,1.18,0,0,6,.17,9.63-.61,0,0,11.96-.61,51.22,1.7,0,0,35.47-1.23,60.3,15.22,0,0,14.14,8.3,31.98,16.06,0,0,13.76,6,18.6,9.45,0,0,11.84,6.76,18.14,9.42l2.05,.98v413.17s-622.35,0-622.35,0c0,0,.42-19.68,4.3-35.55Z"/>
      <path class="cls-6" d="M258.37,999s12.22-73.67,12.57-85.26c0,0,.49-.92,5.35,1.93,0,0,24.04,13.34,37.04,19.11,0,0,12.55,6.55,24.05,12.11,0,0,9.63,4.61,20.11,9.74,0,0,17.29,8.57,26.48,6.82,0,0-2.38,11.65-2.96,17.28,0,0-1.14,9.6-.95,10.38,0,0-.24,5.4-.39,7.89h-121.29Z"/>
      <path class="cls-3" d="M382.79,963.72s-1.1,7.43-3.18,15.79c0,0-1.73,8.7-5.59,19.48h5.65s0-18.02,4.3-35.55c0,0-.74,.16-1.18,.27Z"/>
      <path class="cls-14" d="M269.41,927.76s.32,.71-2.04-.79c0,0-8.21-4.53-15.19-10.32,0,0-8.53-6.54-14.01-10.46,0,0-7.58-7.18-11.1-9.11,0,0-10.92-7.64-17.09-11.27,0,0-3.86-2.25-7.23-5.53,0,0-5.13-4.47-5.51-5.3,0,0,5.22,2.97,11.65,7.32,0,0,8.01,5.13,17.44,9.45,0,0,8.79,5.82,23.15,11.67,0,0,6.31,2.39,9.54,5.25,0,0,1.4,1.84,5.15,1.63,0,0,.98,2.47,5.88,4.45,0,0,.63,.28,.87-.25,0,0-.5,5.51-.89,8.56,0,0-.55,4.26-.61,4.7Z"/>
      <path class="cls-8" d="M317.1,639.54s3.69,18.14,18.29,42.28c0,0,6.3,19.37,8.92,44.89,0,0,1.08,28.59,3.23,36.28,0,0,.46,21.98-1.08,31.05,0,0,3.69,25.67,13.53,53.19,0,0,7.53,17.99,7.53,25.98,0,0,1.69,10.3,3.07,13.07,0,0-54.73,19.22-69.49-32.13,0,0-22.44-77.17-4.61-132.52,0,0-4.3-34.74,4.3-58.11,0,0,9.53-16.22,16.3-23.98Z"/>
      <path class="cls-4" d="M487.47,570.58s-1.33-5.76-2.51-8.7c-.06-.14-.55-3.23,4.12-7.98,0,0,3.03-3.55,8.68-3.69,0,0,4.04-1.05,8.23-.78,0,0,.5,5.31-.39,6.59,0,0-5.21,4.38-8.28,5.91,0,0-5.32,3.35-8.32,7.02,0,0-.91,.4-1.54,1.64Z"/>
      <path class="cls-9" d="M764.46,521.36s4.42,4.69,4.27,9.76c0,0,.05,1.45-1.67,.44,0,0-10.61-.77-11.6-.77l-14.98-.38s6.19-2.6,8.19-2.76,2.99-1.02,2.99-1.02c0,0,10.55-4.8,11.27-6.16,0,0,1.38-.24,1.54,.87Z"/>
      <path class="cls-15" d="M1002.02,586.96l-49.09-25.52s35.97,55.65,35.67,69.49c-.31,13.84-38.43-49.81-38.43-49.81,0,0-52.27-2.77-29.82,82.71l70.72,335.17h10.96v-412.04Z"/>
    </g>
  </g>
</svg>