<?xml version="1.0" encoding="UTF-8"?>
<svg id="Layer_1" data-name="Layer 1" xmlns="http://www.w3.org/2000/svg" viewBox="0 0 206 36">
  <defs>
    <style>
      .cls-1 {
        fill: #fff;
      }

      .cls-2, .cls-3 {
        fill: #8697a8;
      }

      .cls-3 {
        isolation: isolate;
        opacity: .5;
      }
    </style>
  </defs>
  <circle class="cls-3" cx="23.22" cy="18" r="18"/>
  <g>
    <path class="cls-2" d="M68.99,18.42c-.37,.78-.89,1.43-1.54,1.96-.65,.53-1.42,.92-2.29,1.18-.87,.26-1.81,.39-2.81,.39h-2.97v5.34h-3.91V9.5h7.27c1.07,0,2.02,.15,2.86,.44,.84,.3,1.55,.72,2.13,1.26,.58,.54,1.03,1.19,1.35,1.94,.31,.75,.47,1.59,.47,2.5v.05c0,1.03-.19,1.94-.56,2.72Zm-3.41-2.69c0-.88-.28-1.55-.85-2.01-.57-.46-1.34-.69-2.33-.69h-3.02v5.44h3.1c.98,0,1.74-.26,2.29-.78,.54-.52,.81-1.16,.81-1.92v-.05Z"/>
    <path class="cls-2" d="M85.56,23.26c-.37,.86-.89,1.61-1.55,2.25-.66,.64-1.44,1.15-2.34,1.53-.9,.37-1.88,.56-2.95,.56s-2.02-.18-2.92-.55c-.9-.36-1.67-.86-2.33-1.5-.65-.63-1.17-1.38-1.54-2.24-.37-.86-.56-1.78-.56-2.76v-.05c0-.98,.19-1.9,.56-2.76,.37-.85,.89-1.6,1.55-2.25,.66-.64,1.44-1.15,2.34-1.52,.9-.37,1.88-.56,2.95-.56s2.02,.18,2.92,.55c.9,.36,1.67,.86,2.33,1.5,.65,.64,1.16,1.38,1.54,2.24,.37,.86,.56,1.77,.56,2.76v.05c0,.98-.19,1.9-.56,2.76Zm-3.25-2.76c0-.51-.08-.99-.25-1.44-.17-.45-.42-.85-.74-1.19s-.7-.62-1.14-.83-.92-.3-1.45-.3c-.56,0-1.05,.1-1.49,.29-.43,.19-.8,.46-1.11,.8-.3,.34-.54,.73-.7,1.18-.16,.45-.24,.93-.24,1.44v.05c0,.51,.08,.99,.25,1.44,.17,.45,.42,.85,.74,1.19,.32,.35,.7,.62,1.13,.83s.92,.3,1.46,.3,1.05-.1,1.49-.29c.43-.19,.8-.46,1.11-.8,.31-.34,.54-.73,.7-1.18,.16-.45,.24-.93,.24-1.44v-.05Z"/>
    <path class="cls-2" d="M97.68,27.29l-3.56-5.57-1.35,1.42v4.14h-3.86V8.74h3.86v9.89l4.52-4.96h4.62l-5.18,5.36,5.36,8.26h-4.42Z"/>
    <path class="cls-2" d="M117.48,23.26c-.37,.86-.89,1.61-1.55,2.25-.66,.64-1.44,1.15-2.34,1.53-.9,.37-1.88,.56-2.95,.56s-2.02-.18-2.92-.55c-.9-.36-1.67-.86-2.33-1.5-.65-.63-1.17-1.38-1.54-2.24-.37-.86-.56-1.78-.56-2.76v-.05c0-.98,.19-1.9,.56-2.76,.37-.85,.89-1.6,1.55-2.25,.66-.64,1.44-1.15,2.34-1.52,.9-.37,1.88-.56,2.95-.56s2.02,.18,2.92,.55c.9,.36,1.67,.86,2.33,1.5s1.17,1.38,1.54,2.24c.37,.86,.56,1.77,.56,2.76v.05c0,.98-.19,1.9-.56,2.76Zm-3.25-2.76c0-.51-.08-.99-.25-1.44-.17-.45-.42-.85-.74-1.19-.32-.35-.7-.62-1.14-.83-.44-.2-.92-.3-1.45-.3-.56,0-1.05,.1-1.49,.29-.43,.19-.8,.46-1.11,.8-.3,.34-.54,.73-.7,1.18-.16,.45-.24,.93-.24,1.44v.05c0,.51,.08,.99,.25,1.44,.17,.45,.42,.85,.74,1.19,.32,.35,.7,.62,1.13,.83,.43,.2,.92,.3,1.46,.3s1.05-.1,1.49-.29c.43-.19,.8-.46,1.11-.8,.3-.34,.54-.73,.7-1.18,.16-.45,.24-.93,.24-1.44v-.05Z"/>
    <path class="cls-2" d="M130.56,26.89c-.85,.47-1.95,.7-3.3,.7-1.02,0-1.96-.19-2.83-.56-.87-.37-1.62-.88-2.25-1.51-.63-.63-1.12-1.38-1.47-2.24-.36-.85-.53-1.77-.53-2.73v-.05c0-.97,.18-1.88,.53-2.74,.36-.86,.85-1.62,1.47-2.26,.63-.64,1.38-1.15,2.25-1.52,.87-.37,1.83-.56,2.88-.56,1.29,0,2.35,.2,3.2,.61,.85,.41,1.59,.97,2.24,1.68l-2.36,2.54c-.44-.46-.89-.82-1.36-1.09-.47-.27-1.05-.41-1.74-.41-.49,0-.94,.1-1.33,.29-.4,.19-.75,.46-1.04,.8-.3,.34-.53,.73-.69,1.18-.16,.45-.24,.93-.24,1.44v.05c0,.53,.08,1.02,.24,1.47,.16,.46,.39,.86,.7,1.19,.3,.34,.67,.61,1.09,.8,.42,.2,.9,.29,1.42,.29,.64,0,1.21-.13,1.69-.39,.48-.26,.96-.61,1.44-1.05l2.26,2.29c-.66,.73-1.42,1.33-2.26,1.79Z"/>
    <path class="cls-2" d="M143.32,27.29v-1.47c-.47,.53-1.04,.94-1.7,1.26s-1.47,.47-2.41,.47c-.64,0-1.25-.09-1.82-.27s-1.06-.44-1.49-.8c-.42-.36-.76-.79-1-1.31-.25-.52-.37-1.11-.37-1.79v-.05c0-.75,.13-1.39,.41-1.93,.27-.54,.65-.99,1.13-1.35,.48-.36,1.06-.62,1.73-.8,.67-.18,1.41-.27,2.22-.27,.69,0,1.3,.05,1.82,.15s1.02,.24,1.51,.41v-.23c0-.81-.25-1.43-.74-1.85s-1.22-.64-2.19-.64c-.75,0-1.4,.06-1.97,.19s-1.17,.31-1.79,.55l-.97-2.95c.75-.32,1.52-.58,2.34-.79,.81-.2,1.8-.3,2.95-.3,2.12,0,3.66,.52,4.62,1.55,.97,1.03,1.45,2.47,1.45,4.32v7.9h-3.74Zm.08-5.49c-.34-.15-.72-.28-1.13-.37-.42-.09-.86-.14-1.33-.14-.83,0-1.48,.16-1.96,.48-.47,.32-.71,.79-.71,1.4v.05c0,.53,.19,.93,.58,1.22,.39,.29,.9,.43,1.52,.43,.92,0,1.65-.22,2.2-.66,.55-.44,.83-1.02,.83-1.73v-.69Z"/>
    <path class="cls-2" d="M158.39,17.45c-1.29,0-2.3,.39-3.04,1.17-.74,.78-1.11,1.99-1.11,3.63v5.03h-3.86V13.67h3.86v2.74c.39-.93,.92-1.68,1.6-2.24s1.59-.81,2.75-.76v4.04h-.2Z"/>
    <path class="cls-2" d="M167.31,27.3c-.49,.14-1.06,.22-1.7,.22-.59,0-1.13-.06-1.61-.19-.48-.13-.9-.35-1.25-.67-.35-.32-.62-.74-.81-1.26-.19-.52-.29-1.17-.29-1.97v-6.46h-1.63v-3.3h1.63v-3.48h3.86v3.48h3.2v3.3h-3.2v5.82c0,.88,.42,1.32,1.25,1.32,.68,0,1.31-.16,1.91-.48v3.1c-.41,.24-.86,.43-1.35,.57Z"/>
  </g>
  <g>
    <path class="cls-1" d="M19.91,24.33c-.74,0-1.5-.21-2.24-.61-1.01-.55-1.91-1.39-2.75-2.54-.93-1.29-1.52-2.54-1.81-3.82-.15-.67-.16-1.23-.02-1.77,.24-.93,.99-1.53,1.93-1.53,.13,0,.26,.01,.4,.04,.28,.05,.58,.1,.87,.1,.11,0,.22,0,.33-.03,.71-.12,1.06-.47,1.18-1.17,.13-.76-.07-1.39-.61-1.9-.28-.27-.63-.41-1.05-.41-.1,0-.19,0-.29,.02-.94,.12-1.75,.62-2.42,1.1-.74,.53-1.4,1.17-2,1.79-.25,.25-.58,.39-.92,.39-.56,0-1.05-.36-1.22-.9-.15-.46-.06-.9,.24-1.22,1.21-1.29,2.72-2.71,4.77-3.44,.62-.22,1.23-.33,1.8-.33,.48,0,.96,.08,1.41,.24,1.46,.51,2.4,1.58,2.8,3.18,.32,1.3,.13,2.5-.59,3.58-.62,.94-1.55,1.49-2.77,1.65-.06,0-.11,.02-.17,.02v.08s-.57-.04-.57-.04c0,0-.46-.06-.54-.07,.03,.19,.07,.37,.12,.53,.52,1.54,1.38,2.81,2.55,3.79,.48,.4,.92,.62,1.39,.69,.07,.01,.14,.02,.21,.02,.24,0,.48-.06,.75-.19,.7-.34,1.38-.84,2.08-1.52,.88-.86,1.74-1.75,2.6-2.63l.47-.49c1.44-1.48,3.01-3.03,4.92-4.23,1.53-.96,3.03-1.53,4.58-1.74,.58-.08,1.16-.09,1.65-.09,.31,0,.61,.12,.83,.35,.25,.25,.38,.62,.37,1-.02,.65-.58,1.2-1.22,1.2h0c-1.85,0-3.57,.58-5.32,1.79-1.36,.93-2.55,2.08-3.64,3.19l-.79,.81c-.94,.96-1.89,1.93-2.85,2.87-.65,.64-1.42,1.2-2.29,1.68-.7,.38-1.42,.58-2.14,.58Z"/>
    <path class="cls-1" d="M16.31,30.57c-1.12,0-2-.88-2.02-2,0-.54,.2-1.04,.57-1.42,.39-.39,.91-.61,1.47-.61s1.04,.21,1.42,.59c.38,.38,.59,.89,.59,1.43,0,1.13-.89,2.01-2.03,2.01Z"/>
    <path class="cls-1" d="M27.51,30.57c-1.11,0-2.01-.9-2.01-2.01,0-.54,.21-1.05,.58-1.42,.38-.38,.89-.59,1.44-.59s1.06,.21,1.45,.6c.38,.38,.58,.89,.58,1.42-.01,1.12-.9,2-2.04,2h0Z"/>
  </g>
</svg>