<?xml version="1.0" encoding="UTF-8"?>
<svg id="Layer_1" data-name="Layer 1" xmlns="http://www.w3.org/2000/svg" viewBox="0 0 206 36">
  <defs>
    <style>
      .cls-1 {
        fill: #fff;
      }

      .cls-2, .cls-3 {
        fill: #8697a8;
      }

      .cls-3 {
        isolation: isolate;
        opacity: .5;
      }
    </style>
  </defs>
  <circle class="cls-3" cx="23.25" cy="18.02" r="18"/>
  <g>
    <path class="cls-2" d="M59.66,25.49l-3.02-4.5h-2.43v4.5h-3.1V11.42h6.44c1.68,0,2.98,.41,3.91,1.23,.93,.82,1.4,1.96,1.4,3.42v.04c0,1.14-.28,2.07-.83,2.79-.56,.72-1.28,1.24-2.18,1.58l3.44,5.03h-3.62Zm.06-9.27c0-.67-.21-1.17-.64-1.51-.43-.33-1.03-.5-1.79-.5h-3.08v4.04h3.14c.76,0,1.35-.18,1.76-.54,.41-.36,.61-.84,.61-1.45v-.04Z"/>
    <path class="cls-2" d="M75.38,20.79c0,.11-.02,.24-.03,.38h-7.5c.15,.7,.45,1.22,.92,1.58s1.04,.53,1.72,.53c.51,0,.97-.09,1.37-.26,.4-.17,.82-.46,1.25-.84l1.75,1.55c-.51,.63-1.13,1.12-1.85,1.48-.72,.36-1.58,.53-2.55,.53-.8,0-1.55-.13-2.24-.4-.69-.27-1.29-.65-1.79-1.15-.5-.5-.9-1.08-1.18-1.76-.28-.68-.42-1.43-.42-2.26v-.04c0-.76,.13-1.49,.39-2.17s.63-1.28,1.1-1.79c.47-.51,1.03-.91,1.68-1.21,.65-.29,1.37-.44,2.16-.44,.9,0,1.68,.16,2.33,.48,.66,.32,1.2,.75,1.64,1.3,.44,.54,.76,1.17,.97,1.87,.21,.7,.31,1.44,.31,2.2v.04c0,.15,0,.27-.01,.38Zm-3.69-3.19c-.39-.42-.91-.63-1.55-.63s-1.16,.21-1.56,.62-.65,.97-.77,1.67h4.6c-.09-.68-.33-1.24-.72-1.66Z"/>
    <path class="cls-2" d="M87.7,20.79c0,.11-.02,.24-.03,.38h-7.5c.15,.7,.45,1.22,.92,1.58s1.04,.53,1.72,.53c.51,0,.97-.09,1.37-.26,.4-.17,.82-.46,1.25-.84l1.75,1.55c-.51,.63-1.13,1.12-1.85,1.48-.72,.36-1.58,.53-2.55,.53-.8,0-1.55-.13-2.24-.4-.69-.27-1.29-.65-1.79-1.15-.5-.5-.9-1.08-1.18-1.76-.28-.68-.42-1.43-.42-2.26v-.04c0-.76,.13-1.49,.39-2.17s.63-1.28,1.1-1.79c.47-.51,1.03-.91,1.68-1.21,.65-.29,1.37-.44,2.16-.44,.9,0,1.68,.16,2.33,.48,.66,.32,1.2,.75,1.64,1.3,.44,.54,.76,1.17,.97,1.87,.21,.7,.31,1.44,.31,2.2v.04c0,.15,0,.27-.01,.38Zm-3.69-3.19c-.39-.42-.91-.63-1.55-.63s-1.16,.21-1.56,.62-.65,.97-.77,1.67h4.6c-.09-.68-.33-1.24-.72-1.66Z"/>
    <path class="cls-2" d="M95.36,13.32c-.21-.05-.46-.07-.72-.07-.74,0-1.11,.39-1.11,1.17v.42h2.47v2.49h-2.43v8.17h-3.06v-8.17h-1.27v-2.51h1.27v-.68c0-1.19,.28-2.07,.85-2.62s1.4-.83,2.48-.83c.48,0,.89,.03,1.24,.08,.34,.05,.65,.13,.94,.22v2.53c-.23-.08-.45-.14-.66-.19Z"/>
    <path class="cls-2" d="M113.9,25.49l-6.82-8.95v8.95h-3.06V11.42h2.86l6.6,8.67V11.42h3.06v14.08h-2.63Z"/>
    <path class="cls-2" d="M129.63,20.79c0,.11-.02,.24-.03,.38h-7.5c.15,.7,.45,1.22,.91,1.58,.46,.36,1.04,.53,1.72,.53,.51,0,.97-.09,1.37-.26,.4-.17,.82-.46,1.25-.84l1.75,1.55c-.51,.63-1.13,1.12-1.85,1.48-.72,.36-1.58,.53-2.55,.53-.8,0-1.55-.13-2.24-.4-.69-.27-1.29-.65-1.79-1.15-.5-.5-.89-1.08-1.18-1.76-.28-.68-.42-1.43-.42-2.26v-.04c0-.76,.13-1.49,.39-2.17,.26-.68,.63-1.28,1.1-1.79,.47-.51,1.03-.91,1.68-1.21,.65-.29,1.37-.44,2.16-.44,.9,0,1.68,.16,2.33,.48,.66,.32,1.2,.75,1.64,1.3s.76,1.17,.97,1.87c.21,.7,.31,1.44,.31,2.2v.04c0,.15,0,.27,0,.38Zm-3.69-3.19c-.39-.42-.91-.63-1.55-.63s-1.16,.21-1.56,.62-.65,.97-.77,1.67h4.61c-.09-.68-.33-1.24-.72-1.66Z"/>
    <path class="cls-2" d="M142.83,22.51c-.27,.69-.64,1.27-1.09,1.75-.45,.48-.97,.83-1.56,1.08s-1.21,.36-1.85,.36c-.82,0-1.49-.16-2.02-.48-.53-.32-.98-.69-1.34-1.12v4.61h-3.06V14.71h3.06v1.54c.38-.51,.83-.92,1.36-1.25,.53-.33,1.2-.49,2-.49,.63,0,1.24,.12,1.83,.36,.59,.24,1.11,.6,1.57,1.08,.46,.48,.82,1.06,1.1,1.75,.27,.69,.41,1.49,.41,2.38v.04c0,.9-.14,1.69-.41,2.38Zm-2.64-2.42c0-.45-.07-.85-.21-1.22s-.33-.69-.57-.95c-.24-.26-.52-.47-.83-.61-.31-.14-.65-.21-1.02-.21s-.7,.07-1.02,.21c-.31,.14-.59,.34-.82,.61-.23,.26-.42,.58-.56,.95-.14,.37-.21,.78-.21,1.22v.04c0,.45,.07,.85,.21,1.22,.14,.37,.33,.69,.56,.95,.23,.26,.51,.47,.82,.61,.32,.14,.65,.21,1.02,.21s.7-.07,1.02-.21c.32-.14,.59-.34,.83-.61,.24-.26,.43-.58,.57-.94,.14-.36,.21-.78,.21-1.23v-.04Z"/>
    <path class="cls-2" d="M151.81,25.49v-1.17c-.38,.42-.83,.75-1.35,1-.52,.25-1.16,.37-1.91,.37-.51,0-.99-.07-1.44-.21s-.84-.35-1.18-.63-.6-.63-.79-1.04c-.19-.41-.29-.88-.29-1.42v-.04c0-.59,.11-1.1,.32-1.53,.21-.43,.51-.78,.89-1.07,.38-.28,.84-.49,1.37-.63,.53-.14,1.12-.21,1.76-.21,.55,0,1.03,.04,1.44,.12,.41,.08,.81,.19,1.2,.32v-.18c0-.64-.19-1.13-.58-1.47s-.96-.5-1.73-.5c-.59,0-1.11,.05-1.56,.15s-.92,.24-1.42,.43l-.76-2.33c.59-.25,1.21-.46,1.85-.62,.64-.16,1.42-.24,2.33-.24,1.68,0,2.9,.41,3.66,1.23,.76,.82,1.15,1.96,1.15,3.42v6.25h-2.96Zm.06-4.34c-.27-.12-.57-.22-.89-.29-.33-.07-.68-.11-1.06-.11-.66,0-1.17,.13-1.55,.38-.38,.25-.56,.62-.56,1.11v.04c0,.42,.15,.74,.46,.97,.31,.23,.71,.34,1.21,.34,.72,0,1.3-.17,1.74-.52s.65-.8,.65-1.37v-.54Z"/>
    <path class="cls-2" d="M157.54,25.49V10.81h3.06v14.68h-3.06Z"/>
  </g>
  <g>
    <path class="cls-1" d="M17.09,13.61l8.32,3.8c.19,.09,.42,.04,.55-.12l8.94-10.55c.35-.41,1,0,.79,.49l-7.05,16.76c-.11,.25-.4,.36-.65,.23l-8.32-4.31c-.17-.09-.37-.07-.51,.05l-9.03,7.44c-.4,.33-.96-.13-.71-.59l7.06-13c.12-.22,.38-.31,.61-.2Z"/>
    <path class="cls-1" d="M11.51,20.84c-.21,0-.4-.15-.44-.36-.17-.85-.25-1.72-.24-2.59,.03-3.32,1.36-6.43,3.73-8.75s5.51-3.58,8.83-3.55c2.98,.03,5.86,1.13,8.09,3.1,.19,.16,.2,.45,.04,.64-.16,.19-.45,.2-.64,.04-2.07-1.83-4.74-2.85-7.5-2.88-3.08-.03-5.99,1.14-8.19,3.29-2.2,2.15-3.43,5.04-3.46,8.12,0,.81,.07,1.62,.22,2.4,.05,.24-.11,.48-.35,.53-.03,0-.06,0-.09,0Z"/>
    <path class="cls-1" d="M23.26,30.45s-.09,0-.13,0c-3.6-.04-7.01-1.63-9.34-4.38-.16-.19-.14-.47,.05-.64,.19-.16,.47-.14,.64,.05,2.17,2.55,5.33,4.03,8.67,4.06,3.08,.03,5.99-1.14,8.19-3.29,2.2-2.15,3.43-5.04,3.46-8.12,.02-1.55-.27-3.06-.85-4.48-.09-.23,.02-.49,.25-.59,.23-.09,.49,.02,.59,.25,.63,1.53,.94,3.16,.92,4.83-.03,3.32-1.36,6.43-3.73,8.75-2.34,2.29-5.42,3.55-8.69,3.55Z"/>
  </g>
</svg>