<?xml version="1.0" encoding="UTF-8"?>
<svg id="Layer_1" data-name="Layer 1" xmlns="http://www.w3.org/2000/svg" viewBox="0 0 206 36">
  <defs>
    <style>
      .cls-1 {
        fill: #fff;
      }

      .cls-2, .cls-3 {
        fill: #8697a8;
      }

      .cls-3 {
        isolation: isolate;
        opacity: .5;
      }
    </style>
  </defs>
  <circle class="cls-3" cx="23.22" cy="18" r="18"/>
  <g>
    <path class="cls-2" d="M66.27,27.29l-3.81-5.69h-3.07v5.69h-3.91V9.5h8.13c2.12,0,3.77,.52,4.94,1.55,1.18,1.03,1.77,2.47,1.77,4.32v.05c0,1.44-.35,2.61-1.05,3.52-.7,.91-1.62,1.57-2.76,1.99l4.35,6.35h-4.57Zm.08-11.71c0-.85-.27-1.48-.81-1.91-.54-.42-1.3-.64-2.26-.64h-3.89v5.11h3.96c.97,0,1.71-.23,2.22-.69s.78-1.07,.78-1.83v-.05Z"/>
    <path class="cls-2" d="M86.96,23.26c-.37,.86-.89,1.61-1.55,2.25-.66,.64-1.44,1.15-2.34,1.53-.9,.37-1.88,.56-2.95,.56s-2.02-.18-2.92-.55c-.9-.36-1.67-.86-2.33-1.5-.65-.63-1.17-1.38-1.54-2.24-.37-.86-.56-1.78-.56-2.76v-.05c0-.98,.19-1.9,.56-2.76,.37-.85,.89-1.6,1.55-2.25,.66-.64,1.44-1.15,2.34-1.52,.9-.37,1.88-.56,2.95-.56s2.02,.18,2.92,.55c.9,.36,1.67,.86,2.33,1.5,.65,.64,1.16,1.38,1.54,2.24,.37,.86,.56,1.77,.56,2.76v.05c0,.98-.19,1.9-.56,2.76Zm-3.25-2.76c0-.51-.08-.99-.25-1.44-.17-.45-.42-.85-.74-1.19s-.7-.62-1.14-.83-.92-.3-1.45-.3c-.56,0-1.05,.1-1.49,.29-.43,.19-.8,.46-1.11,.8-.3,.34-.54,.73-.7,1.18-.16,.45-.24,.93-.24,1.44v.05c0,.51,.08,.99,.25,1.44,.17,.45,.42,.85,.74,1.19,.32,.35,.7,.62,1.13,.83s.92,.3,1.46,.3,1.05-.1,1.49-.29c.43-.19,.8-.46,1.11-.8,.31-.34,.54-.73,.7-1.18,.16-.45,.24-.93,.24-1.44v-.05Z"/>
    <path class="cls-2" d="M98.32,17.45c-1.29,0-2.3,.39-3.04,1.17-.74,.78-1.11,1.99-1.11,3.63v5.03h-3.86V13.67h3.86v2.74c.39-.93,.92-1.68,1.6-2.24,.68-.56,1.59-.81,2.74-.76v4.04h-.2Z"/>
    <path class="cls-2" d="M114.45,23.26c-.37,.86-.89,1.61-1.55,2.25-.66,.64-1.44,1.15-2.34,1.53-.9,.37-1.88,.56-2.95,.56s-2.02-.18-2.92-.55c-.9-.36-1.67-.86-2.33-1.5-.65-.63-1.17-1.38-1.54-2.24-.37-.86-.56-1.78-.56-2.76v-.05c0-.98,.19-1.9,.56-2.76,.37-.85,.89-1.6,1.55-2.25,.66-.64,1.44-1.15,2.34-1.52,.9-.37,1.88-.56,2.95-.56s2.02,.18,2.92,.55c.9,.36,1.67,.86,2.33,1.5s1.17,1.38,1.54,2.24c.37,.86,.56,1.77,.56,2.76v.05c0,.98-.19,1.9-.56,2.76Zm-3.25-2.76c0-.51-.08-.99-.25-1.44-.17-.45-.42-.85-.74-1.19-.32-.35-.7-.62-1.14-.83-.44-.2-.92-.3-1.45-.3-.56,0-1.05,.1-1.49,.29-.43,.19-.8,.46-1.11,.8-.3,.34-.54,.73-.7,1.18-.16,.45-.24,.93-.24,1.44v.05c0,.51,.08,.99,.25,1.44,.17,.45,.42,.85,.74,1.19,.32,.35,.7,.62,1.13,.83,.43,.2,.92,.3,1.46,.3s1.05-.1,1.49-.29c.43-.19,.8-.46,1.11-.8,.3-.34,.54-.73,.7-1.18,.16-.45,.24-.93,.24-1.44v-.05Z"/>
    <path class="cls-2" d="M139.08,27.29l-1.63-3.99h-7.52l-1.63,3.99h-3.99l7.62-17.92h3.61l7.62,17.92h-4.09Zm-5.39-13.21l-2.36,5.77h4.73l-2.36-5.77Z"/>
    <path class="cls-2" d="M155.34,27.29v-1.94c-.47,.64-1.05,1.16-1.71,1.58-.67,.41-1.51,.62-2.53,.62-.8,0-1.57-.15-2.31-.46-.75-.3-1.41-.76-1.98-1.36-.58-.6-1.04-1.34-1.39-2.21-.35-.87-.52-1.88-.52-3.01v-.05c0-1.13,.17-2.14,.52-3.01,.35-.87,.8-1.61,1.37-2.21,.57-.6,1.22-1.05,1.97-1.36,.75-.31,1.53-.46,2.34-.46,1.03,0,1.88,.2,2.55,.6,.67,.4,1.23,.87,1.69,1.41v-6.69h3.86V27.29h-3.86Zm.05-6.84c0-.56-.09-1.08-.27-1.55s-.42-.87-.71-1.2c-.3-.33-.64-.59-1.04-.77-.4-.18-.83-.27-1.28-.27s-.88,.09-1.28,.27-.75,.43-1.05,.77c-.3,.33-.55,.73-.72,1.19-.18,.46-.27,.98-.27,1.56v.05c0,.56,.09,1.08,.27,1.55,.18,.47,.42,.87,.72,1.2,.3,.33,.66,.59,1.05,.77,.4,.18,.83,.27,1.28,.27s.89-.09,1.28-.27c.4-.18,.75-.44,1.04-.77,.3-.33,.53-.73,.71-1.2,.18-.47,.27-.98,.27-1.55v-.05Z"/>
    <path class="cls-2" d="M172.25,25.11c-.26,.55-.63,1-1.11,1.36-.47,.36-1.03,.62-1.67,.8-.63,.18-1.32,.27-2.04,.27-.97,0-1.95-.17-2.96-.5-1.01-.33-1.97-.85-2.88-1.56l1.65-2.54c.75,.54,1.49,.95,2.22,1.22,.74,.27,1.43,.41,2.07,.41,.56,0,.97-.09,1.23-.28,.26-.19,.39-.43,.39-.74v-.05c0-.2-.08-.38-.23-.53s-.36-.28-.62-.39-.56-.22-.9-.32c-.34-.1-.7-.21-1.07-.33-.47-.13-.95-.3-1.44-.5-.48-.19-.92-.45-1.31-.76s-.71-.7-.95-1.16c-.25-.46-.37-1.02-.37-1.68v-.05c0-.69,.13-1.31,.39-1.84,.26-.53,.62-.99,1.07-1.36,.45-.37,.97-.65,1.58-.84,.6-.19,1.25-.28,1.94-.28,.86,0,1.74,.14,2.63,.42,.89,.28,1.71,.67,2.45,1.16l-1.47,2.67c-.68-.39-1.34-.7-1.98-.93-.64-.23-1.21-.34-1.7-.34s-.83,.09-1.07,.27c-.24,.18-.36,.4-.36,.67v.05c0,.19,.08,.35,.23,.5,.15,.14,.36,.28,.61,.41,.25,.13,.55,.25,.88,.37,.33,.12,.68,.24,1.05,.36,.47,.15,.96,.33,1.45,.55,.49,.21,.93,.47,1.32,.78s.71,.68,.97,1.12,.38,.97,.38,1.6v.05c0,.76-.13,1.42-.39,1.97Z"/>
  </g>
  <g id="black">
    <path class="cls-1" d="M38.88,15.28c-.04-.39-.12-.78-.21-1.15-.06-.22-.13-.44-.2-.66-.12-.33-.25-.65-.41-.95-.15-.29-.32-.58-.5-.85-.37-.55-.81-1.06-1.3-1.5-.12-.11-.24-.21-.36-.31-.45-.36-.93-.67-1.44-.92-.49-.24-1.01-.44-1.55-.58-.09-.02-.17-.04-.26-.06-.58-.13-1.18-.2-1.8-.2h0c-.56,0-1.11,.06-1.64,.17-.05,.01-.11,.02-.16,.04-.63,.14-1.24,.36-1.81,.65-.21,.11-.42,.22-.62,.34-.29,.18-.56,.37-.82,.58-.12,.1-.25,.2-.37,.31-.27,.24-.52,.5-.75,.78,0,0,0,0-.01,.01-.03,.04-.09,.04-.12,0-.28-.34-.59-.66-.92-.95-.06-.05-.12-.1-.17-.15-.5-.41-1.05-.76-1.63-1.05-.57-.28-1.17-.49-1.81-.62-.27-.06-.54-.1-.82-.13,0,0,0,0,0,0H8.58s-.08,.03-.08,.08c0,0,0,0,0,0,0,.63,.16,1.21,.44,1.73,.07,.12,.14,.24,.22,.35,.44,.62,1.07,1.1,1.81,1.34,.14,.05,.28,.08,.43,.11,0,0,.01,0,.02,0h5.96c.1,0,.2,0,.31-.02,0,0,0,0,0,0,.01,0,.03,0,.04,0,.04,0,.08,0,.12-.01,.02,0,.03,0,.05,0,.02,0,.03,0,.05,0,0,0,.01,0,.02,0,.05,0,.1,0,.14,0,.03,0,.06,0,.09,0,.03,0,.06,0,.08,0,.25,0,.5,.02,.74,.06,.34,.06,.67,.15,.98,.28,.71,.3,1.33,.77,1.81,1.36,.04,.05,.08,.11,.12,.16,.38,.53,.65,1.14,.78,1.81,.02,.12,.04,.23,.05,.35,0,0,0,0,0,.01-.01,.18-.02,.36-.02,.55,0,.02,0,.03,0,.05,0,.13,0,.26,.01,.39,0,.15,.02,.3,.04,.45,.07,.63,.21,1.23,.41,1.81,.12,.33,.26,.66,.42,.97,.15,.29,.31,.57,.49,.84,.13,.2,.27,.39,.42,.57,.27,.34,.57,.66,.9,.95,.11,.1,.22,.2,.34,.29,.45,.36,.94,.68,1.47,.94,.57,.28,1.17,.5,1.81,.65,.57,.13,1.16,.2,1.76,.2,.02,0,.03,0,.05,0h0c.62,0,1.22-.07,1.8-.2,.41-.09,.81-.22,1.19-.37,.21-.08,.42-.18,.62-.28,.53-.26,1.02-.58,1.47-.94,.06-.04,.11-.09,.16-.14,.06-.05,.11-.1,.17-.15,.5-.45,.94-.96,1.32-1.52,.06-.09,.12-.18,.18-.27,.11-.18,.22-.37,.31-.56,.16-.31,.3-.64,.42-.98,.12-.34,.22-.69,.29-1.05,.05-.25,.09-.5,.12-.75,.03-.29,.05-.59,.05-.89s-.02-.61-.05-.91Zm-3.64,1.81c-.05,.23-.11,.44-.18,.65-.15,.41-.36,.8-.62,1.14h0s0,.01,0,.01c-.26,.35-.57,.66-.92,.91-.27,.2-.57,.37-.88,.51-.55,.24-1.16,.38-1.8,.38h0s-.02,0-.04,0c-.63,0-1.23-.14-1.77-.38-.71-.31-1.33-.81-1.79-1.42h-.01v-.02c-.39-.52-.67-1.13-.8-1.79-.03-.14-.05-.28-.06-.42h0c-.01-.14-.02-.29-.02-.43,0-.01,0-.03,0-.04,0-.18,.01-.35,.03-.53h0c.02-.13,.04-.26,.06-.39,.13-.65,.41-1.25,.79-1.77v-.04h.03c.46-.61,1.07-1.09,1.78-1.4,.09-.04,.17-.07,.26-.1,.48-.18,1-.27,1.55-.27h0c.64,0,1.25,.13,1.8,.38,.3,.13,.59,.3,.85,.49,.35,.26,.67,.57,.93,.91h.02v.03s.01,.02,.02,.03c.37,.51,.64,1.1,.78,1.74,.06,.29,.09,.6,.09,.91s-.03,.6-.09,.89Z"/>
    <path class="cls-1" d="M31.71,33.34h-5.21l-7.22-7.22-1.09-1.09-.71-.71-.16-.16-.17-.17-.55-.55c-.1-.15-.17-.31-.23-.48-.04-.15-.07-.3-.08-.46,0-.03,0-.06,0-.09,0-.19,.03-.38,.08-.55,.08-.27,.23-.52,.41-.72,.17-.18,.37-.33,.6-.44,.11-.05,.23-.09,.34-.12h0c.14-.04,.29-.05,.45-.05h0c.17,0,.34,.02,.5,.07h0c.1,.03,.2,.06,.29,.11,.07,.03,.13,.07,.2,.11l.61,.61,.2,.2,.88,.88,.91,.91,9.93,9.93Z"/>
  </g>
</svg>